<svg width="16" height="16" viewBox="0 0 16 16" fill="none" xmlns="http://www.w3.org/2000/svg">
<path fill-rule="evenodd" clip-rule="evenodd" d="M7.5 1C3.35778 1 0 4.35795 0 8.5C0 12.6422 3.35778 16 7.5 16C11.6422 16 15 12.6422 15 8.5C15 4.35795 11.6422 1 7.5 1ZM7.5 14.6364C4.11102 14.6364 1.36364 11.8891 1.36364 8.5C1.36364 5.11102 4.11102 2.36364 7.5 2.36364C10.889 2.36364 13.6364 5.11102 13.6364 8.5C13.6364 11.8891 10.889 14.6364 7.5 14.6364ZM10.0222 11.0222C10.2864 10.758 10.2887 10.3305 10.0275 10.0634L8.18182 8.21773V4.40909C8.18182 4.03253 7.87656 3.72727 7.5 3.72727C7.12344 3.72727 6.81818 4.03253 6.81818 4.40909V8.5C6.81818 8.68087 6.89004 8.85434 7.01795 8.98222L9.06341 11.0277C9.33053 11.2888 9.75808 11.2864 10.0222 11.0222Z" fill="#DFDFDF"/>
<path d="M10.0275 10.0634L10.3135 9.78371L10.3103 9.78057L10.0275 10.0634ZM10.0222 11.0222L9.73935 10.7394L9.73935 10.7394L10.0222 11.0222ZM8.18182 8.21773H7.78182V8.38341L7.89898 8.50057L8.18182 8.21773ZM6.81818 8.5L7.21818 8.50001V8.5H6.81818ZM7.01795 8.98222L7.3008 8.69937L7.30075 8.69933L7.01795 8.98222ZM9.06341 11.0277L8.78055 11.3105L8.78378 11.3137L9.06341 11.0277ZM0.4 8.5C0.4 4.57886 3.5787 1.4 7.5 1.4V0.6C3.13686 0.6 -0.4 4.13705 -0.4 8.5H0.4ZM7.5 15.6C3.5787 15.6 0.4 12.4213 0.4 8.5H-0.4C-0.4 12.8631 3.13687 16.4 7.5 16.4V15.6ZM14.6 8.5C14.6 12.4213 11.4213 15.6 7.5 15.6V16.4C11.8631 16.4 15.4 12.8631 15.4 8.5H14.6ZM7.5 1.4C11.4213 1.4 14.6 4.57886 14.6 8.5H15.4C15.4 4.13705 11.8631 0.6 7.5 0.6V1.4ZM0.963636 8.5C0.963636 12.1101 3.89012 15.0364 7.5 15.0364V14.2364C4.33193 14.2364 1.76364 11.6682 1.76364 8.5H0.963636ZM7.5 1.96364C3.89011 1.96364 0.963636 4.89011 0.963636 8.5H1.76364C1.76364 5.33194 4.33194 2.76364 7.5 2.76364V1.96364ZM14.0364 8.5C14.0364 4.89011 11.1099 1.96364 7.5 1.96364V2.76364C10.6681 2.76364 13.2364 5.33194 13.2364 8.5H14.0364ZM7.5 15.0364C11.1099 15.0364 14.0364 12.1101 14.0364 8.5H13.2364C13.2364 11.6682 10.6681 14.2364 7.5 14.2364V15.0364ZM9.74154 10.3431C9.8495 10.4535 9.84853 10.6302 9.73935 10.7394L10.3051 11.305C10.7242 10.8859 10.7279 10.2075 10.3135 9.78372L9.74154 10.3431ZM7.89898 8.50057L9.74466 10.3463L10.3103 9.78057L8.46466 7.93489L7.89898 8.50057ZM7.78182 4.40909V8.21773H8.58182V4.40909H7.78182ZM7.5 4.12727C7.65564 4.12727 7.78182 4.25345 7.78182 4.40909H8.58182C8.58182 3.81162 8.09747 3.32727 7.5 3.32727V4.12727ZM7.21818 4.40909C7.21818 4.25345 7.34436 4.12727 7.5 4.12727V3.32727C6.90253 3.32727 6.41818 3.81162 6.41818 4.40909H7.21818ZM7.21818 8.5V4.40909H6.41818V8.5H7.21818ZM7.30075 8.69933C7.24788 8.64647 7.21818 8.57478 7.21818 8.50001L6.41818 8.49999C6.41817 8.78697 6.53219 9.0622 6.73516 9.2651L7.30075 8.69933ZM9.34625 10.7448L7.3008 8.69937L6.73511 9.26506L8.78057 11.3105L9.34625 10.7448ZM9.73935 10.7394C9.63017 10.8486 9.45346 10.8496 9.34304 10.7417L8.78378 11.3137C9.20761 11.7281 9.88599 11.7242 10.3051 11.305L9.73935 10.7394Z" fill="#DFDFDF"/>
</svg>
